<mxfile host="app.diagrams.net" agent="Mozilla/5.0 (Windows NT 10.0; Win64; x64) AppleWebKit/537.36 (KHTML, like Gecko) Chrome/130.0.0.0 Safari/537.36 Edg/130.0.0.0" version="24.8.0">
  <diagram name="Strona-1" id="A_9tUgF3DZ9QqcFZPlCZ">
    <mxGraphModel dx="656" dy="781" grid="1" gridSize="10" guides="1" tooltips="1" connect="1" arrows="1" fold="1" page="1" pageScale="1" pageWidth="827" pageHeight="1169" math="0" shadow="0">
      <root>
        <mxCell id="0" />
        <mxCell id="1" parent="0" />
        <mxCell id="cos8qCc4vwuHtbIH8iHx-1" value="Wydział" style="swimlane;childLayout=stackLayout;horizontal=1;startSize=50;horizontalStack=0;rounded=1;fontSize=14;fontStyle=0;strokeWidth=2;resizeParent=0;resizeLast=1;shadow=0;dashed=0;align=center;arcSize=4;whiteSpace=wrap;html=1;" vertex="1" parent="1">
          <mxGeometry x="40" y="400" width="160" height="120" as="geometry" />
        </mxCell>
        <mxCell id="cos8qCc4vwuHtbIH8iHx-2" value="+nazwa&lt;div&gt;+adres&lt;/div&gt;" style="align=left;strokeColor=none;fillColor=none;spacingLeft=4;fontSize=12;verticalAlign=top;resizable=0;rotatable=0;part=1;html=1;" vertex="1" parent="cos8qCc4vwuHtbIH8iHx-1">
          <mxGeometry y="50" width="160" height="70" as="geometry" />
        </mxCell>
        <mxCell id="cos8qCc4vwuHtbIH8iHx-3" value="Pracownik" style="swimlane;childLayout=stackLayout;horizontal=1;startSize=50;horizontalStack=0;rounded=1;fontSize=14;fontStyle=0;strokeWidth=2;resizeParent=0;resizeLast=1;shadow=0;dashed=0;align=center;arcSize=4;whiteSpace=wrap;html=1;" vertex="1" parent="1">
          <mxGeometry x="290" y="400" width="160" height="120" as="geometry" />
        </mxCell>
        <mxCell id="cos8qCc4vwuHtbIH8iHx-4" value="+nazwisko&lt;div&gt;+imie&lt;/div&gt;&lt;div&gt;+tytuł naukowy&lt;/div&gt;" style="align=left;strokeColor=none;fillColor=none;spacingLeft=4;fontSize=12;verticalAlign=top;resizable=0;rotatable=0;part=1;html=1;" vertex="1" parent="cos8qCc4vwuHtbIH8iHx-3">
          <mxGeometry y="50" width="160" height="70" as="geometry" />
        </mxCell>
        <mxCell id="cos8qCc4vwuHtbIH8iHx-5" value="Grupa" style="swimlane;childLayout=stackLayout;horizontal=1;startSize=50;horizontalStack=0;rounded=1;fontSize=14;fontStyle=0;strokeWidth=2;resizeParent=0;resizeLast=1;shadow=0;dashed=0;align=center;arcSize=4;whiteSpace=wrap;html=1;" vertex="1" parent="1">
          <mxGeometry x="40" y="200" width="160" height="140" as="geometry" />
        </mxCell>
        <mxCell id="cos8qCc4vwuHtbIH8iHx-6" value="+idGrupy&lt;div&gt;+nazwa&lt;/div&gt;&lt;div&gt;+kierunek&lt;/div&gt;&lt;div&gt;+specjalność&lt;/div&gt;&lt;div&gt;+semestr&lt;/div&gt;" style="align=left;strokeColor=none;fillColor=none;spacingLeft=4;fontSize=12;verticalAlign=top;resizable=0;rotatable=0;part=1;html=1;" vertex="1" parent="cos8qCc4vwuHtbIH8iHx-5">
          <mxGeometry y="50" width="160" height="90" as="geometry" />
        </mxCell>
        <mxCell id="cos8qCc4vwuHtbIH8iHx-7" value="Student" style="swimlane;childLayout=stackLayout;horizontal=1;startSize=50;horizontalStack=0;rounded=1;fontSize=14;fontStyle=0;strokeWidth=2;resizeParent=0;resizeLast=1;shadow=0;dashed=0;align=center;arcSize=4;whiteSpace=wrap;html=1;" vertex="1" parent="1">
          <mxGeometry x="40" y="40" width="160" height="120" as="geometry" />
        </mxCell>
        <mxCell id="cos8qCc4vwuHtbIH8iHx-8" value="+indeks&lt;div&gt;+imie&lt;/div&gt;&lt;div&gt;+nazwisko&lt;/div&gt;&lt;div&gt;+data_urodzenia&lt;/div&gt;" style="align=left;strokeColor=none;fillColor=none;spacingLeft=4;fontSize=12;verticalAlign=top;resizable=0;rotatable=0;part=1;html=1;" vertex="1" parent="cos8qCc4vwuHtbIH8iHx-7">
          <mxGeometry y="50" width="160" height="70" as="geometry" />
        </mxCell>
      </root>
    </mxGraphModel>
  </diagram>
</mxfile>
